<svg data-name="Layer 1" viewBox="0 0 512 512" xmlns="http://www.w3.org/2000/svg"><path d="M144.41 303.63h18.96v18.96h-18.96zM106.3 303.63h18.96v18.96H106.3zM70.02 303.63h18.96v18.96H70.02zM384.91 303.63h18.96v18.96h-18.96zM348.64 303.63h18.96v18.96h-18.96zM423.02 303.63h18.96v18.96h-18.96zM144.41 341.49h18.96v18.96h-18.96zM106.3 341.49h18.96v18.96H106.3zM70.02 341.49h18.96v18.96H70.02zM384.91 341.49h18.96v18.96h-18.96zM348.64 341.49h18.96v18.96h-18.96zM423.02 341.49h18.96v18.96h-18.96zM144.41 379.34h18.96v18.96h-18.96zM106.3 379.34h18.96v18.96H106.3zM70.02 379.34h18.96v18.96H70.02zM384.91 379.34h18.96v18.96h-18.96zM348.64 379.34h18.96v18.96h-18.96zM423.02 379.34h18.96v18.96h-18.96zM214 242.22a42 42 0 1 0 42-42 42.05 42.05 0 0 0-42 42Zm50.12 0v-24.34a25.78 25.78 0 1 1-16.23 0v24.34a8.12 8.12 0 0 0 16.23 0Z" fill="#ffffff" class="fill-000000"></path><path d="M494.12 418.76h-15.39V264.62a8.1 8.1 0 0 0-2.87-6.18L437.75 226a8.14 8.14 0 0 0-10.51 0l-35.67 30.35H330v-46.68a8.11 8.11 0 0 0-3.51-6.68l-62.33-43v-6.59a29 29 0 0 0 6.92 1c8.4 0 15.64-3.66 21.6-6.67 10.33-5.23 15.7-7.45 24.47-.84a8.12 8.12 0 0 0 13-6.47V90.84a8.13 8.13 0 0 0-3.24-6.48c-17.22-13-31.27-5.85-41.54-.66s-15.7 7.43-24.45.85a8.11 8.11 0 0 0-13 6.48v69l-62.33 43a8.14 8.14 0 0 0-3.51 6.68v46.76H120.5L84.76 226a8.12 8.12 0 0 0-10.51 0l-38.11 32.44a8.1 8.1 0 0 0-2.87 6.18v154.14H17.88a8.11 8.11 0 1 0 0 16.22h476.24a8.11 8.11 0 0 0 0-16.22ZM264.12 104c11.37 2.84 21-2 28.53-5.81 9-4.54 14.21-6.85 21.23-3v32.2c-11.37-2.85-21 2-28.57 5.82-9 4.56-14.23 6.81-21.19 3Zm-82.07 314.75H49.5V268.36l30-25.52 32.85 28a8 8 0 0 0 6.38 1.86h63.31Zm90.8 0h-33.68V347.3a16.84 16.84 0 0 1 33.68 0Zm40.88-154.28v154.28h-24.65V347.3a33.08 33.08 0 0 0-66.15 0v71.45h-24.65V213.93L256 174.12l57.72 39.81ZM462.5 418.75H330V272.58h62.89a8 8 0 0 0 6.79-1.79l32.85-28 30 25.52Z" fill="#ffffff" class="fill-000000"></path></svg>